<?xml version="1.0" encoding="UTF-8" standalone="no"?>
<!-- Uploaded to: SVG Repo, www.svgrepo.com, Generator: SVG Repo Mixer Tools -->

<svg
   width="800"
   height="800"
   viewBox="0 0 24 24"
   fill="none"
   version="1.1"
   id="svg1"
   sodipodi:docname="folder.svg"
   inkscape:version="1.3.2 (091e20e, 2023-11-25, custom)"
   xmlns:inkscape="http://www.inkscape.org/namespaces/inkscape"
   xmlns:sodipodi="http://sodipodi.sourceforge.net/DTD/sodipodi-0.dtd"
   xmlns="http://www.w3.org/2000/svg"
   xmlns:svg="http://www.w3.org/2000/svg">
  <defs
     id="defs1" />
  <sodipodi:namedview
     id="namedview1"
     pagecolor="#ffffff"
     bordercolor="#000000"
     borderopacity="0.25"
     inkscape:showpageshadow="2"
     inkscape:pageopacity="0.0"
     inkscape:pagecheckerboard="0"
     inkscape:deskcolor="#d1d1d1"
     inkscape:zoom="1.06875"
     inkscape:cx="400"
     inkscape:cy="400"
     inkscape:window-width="1920"
     inkscape:window-height="1111"
     inkscape:window-x="-9"
     inkscape:window-y="-9"
     inkscape:window-maximized="1"
     inkscape:current-layer="svg1" />
  <path
     d="M 2,7 C 2,5.6 2,4.9 2.272,4.365 A 2.5,2.5 0 0 1 3.365,3.272 C 3.9,3 4.6,3 6,3 h 1.431 c 0.94,0 1.409,0 1.835,0.13 a 3,3 0 0 1 1.033,0.552 c 0.345,0.283 0.605,0.674 1.126,1.455 L 12,6 h 6 c 1.4,0 2.1,0 2.635,0.272 a 2.5,2.5 0 0 1 1.092,1.093 C 22,7.9 22,8.6 22,10 v 5 c 0,1.4 0,2.1 -0.273,2.635 a 2.5,2.5 0 0 1 -1.092,1.092 C 20.1,19 19.4,19 18,19 H 6 C 4.6,19 3.9,19 3.365,18.727 A 2.5,2.5 0 0 1 2.272,17.635 C 2,17.1 2,16.4 2,15 Z"
     fill="#000000"
     id="path1" />
  <path
     style="fill:#fc8ffe;fill-opacity:1;stroke-width:0.0280702"
     d="M 4.5192981,18.961682 C 4.1170362,18.935604 3.834615,18.886522 3.5981145,18.80159 2.9186286,18.557573 2.3348911,17.931247 2.1497327,17.247534 2.0255305,16.788908 2.0263538,16.824195 2.0145322,11.452632 2.0031255,6.2695452 2.0151526,5.3845974 2.10304,4.9403508 2.1983265,4.4587032 2.3914247,4.113588 2.7783881,3.7333332 3.2530941,3.2668572 3.6370764,3.10734 4.4350878,3.0450924 c 0.4509507,-0.035176 3.9424086,-0.034076 4.2807018,0.00135 0.4938426,0.051712 0.897732,0.1942911 1.3080834,0.4617714 0.450695,0.293778 0.666539,0.5540409 1.484899,1.7904807 l 0.477193,0.7209789 3.663158,9.3e-4 c 3.755206,9.54e-4 4.105166,0.00965 4.539893,0.1127745 0.687778,0.1631562 1.378023,0.7861299 1.613667,1.4563995 0.180828,0.5143491 0.197069,0.9918708 0.182462,5.3646096 -0.01262,3.779173 -0.01485,3.849923 -0.134878,4.293149 -0.18563,0.685454 -0.767584,1.308784 -1.452606,1.555885 -0.10757,0.0388 -0.326314,0.09292 -0.486096,0.120259 -0.272513,0.04663 -0.748787,0.04997 -7.687004,0.05386 -4.0680698,0.0023 -7.5354383,-0.0049 -7.7052629,-0.01586 z"
     id="path2" />
</svg>
