<?xml version="1.0" encoding="UTF-8" standalone="no"?>
<svg
   viewBox="0 0 38.000089 42.000031"
   width="380.00089"
   height="420.00031"
   version="1.1"
   id="svg10"
   sodipodi:docname="c.svg"
   xmlns:inkscape="http://www.inkscape.org/namespaces/inkscape"
   xmlns:sodipodi="http://sodipodi.sourceforge.net/DTD/sodipodi-0.dtd"
   xmlns="http://www.w3.org/2000/svg"
   xmlns:svg="http://www.w3.org/2000/svg"
   xmlns:rdf="http://www.w3.org/1999/02/22-rdf-syntax-ns#"
   xmlns:cc="http://creativecommons.org/ns#"
   xmlns:dc="http://purl.org/dc/elements/1.1/">
  <sodipodi:namedview
     id="namedview1"
     pagecolor="#ffffff"
     bordercolor="#000000"
     borderopacity="0.25"
     inkscape:showpageshadow="2"
     inkscape:pageopacity="0.0"
     inkscape:pagecheckerboard="0"
     inkscape:deskcolor="#d1d1d1" />
  <metadata
     id="metadata16">
    <rdf:RDF>
      <cc:Work
         rdf:about="">
        <dc:format>image/svg+xml</dc:format>
        <dc:type
           rdf:resource="http://purl.org/dc/dcmitype/StillImage" />
        <dc:title />
      </cc:Work>
    </rdf:RDF>
  </metadata>
  <defs
     id="defs14" />
  <path
     fill="#283593"
     fill-rule="evenodd"
     d="m 17.903,0.28628166 c 0.679,-0.381 1.515,-0.381 2.193,0 C 23.451,2.1692817 33.547,7.8372817 36.903,9.7202817 37.582,10.100282 38,10.804282 38,11.566282 c 0,3.766 0,15.101 0,18.867 0,0.762 -0.418,1.466 -1.097,1.847 -3.355,1.883 -13.451,7.551 -16.807,9.434 -0.679,0.381 -1.515,0.381 -2.193,0 -3.355,-1.883 -13.451,-7.551 -16.807,-9.434 -0.678,-0.381 -1.096,-1.084 -1.096,-1.846 0,-3.766 0,-15.101 0,-18.867 0,-0.762 0.418,-1.466 1.097,-1.8470003 3.354,-1.883 13.452,-7.551 16.806,-9.43400004 z"
     clip-rule="evenodd"
     id="path2"
     style="fill:#ccddf9;fill-opacity:1" />
  <path
     fill="#5c6bc0"
     fill-rule="evenodd"
     d="m 0.304,31.404282 c -0.266,-0.356 -0.304,-0.694 -0.304,-1.149 0,-3.744 0,-15.014 0,-18.759 0,-0.758 0.417,-1.458 1.094,-1.8360003 3.343,-1.872 13.405,-7.507 16.748,-9.38000004 0.677,-0.379 1.594,-0.371 2.271,0.008 3.343,1.87200004 13.371,7.45900004 16.714,9.33100004 0.27,0.152 0.476,0.335 0.66,0.5760003 z"
     clip-rule="evenodd"
     id="path4"
     style="fill:#ccddf9;fill-opacity:1" />
  <path
     fill="#ffffff"
     fill-rule="evenodd"
     d="m 19,7.0002817 c 7.727,0 14,6.2730003 14,14.0000003 0,7.727 -6.273,14 -14,14 -7.727,0 -14,-6.273 -14,-14 0,-7.727 6.273,-14.0000003 14,-14.0000003 z m 0,7.0000003 c 3.863,0 7,3.136 7,7 0,3.863 -3.137,7 -7,7 -3.863,0 -7,-3.137 -7,-7 0,-3.864 3.136,-7 7,-7 z"
     clip-rule="evenodd"
     id="path6" />
  <path
     fill="#3949ab"
     fill-rule="evenodd"
     d="m 37.485,10.205282 c 0.516,0.483 0.506,1.211 0.506,1.784 0,3.795 -0.032,14.589 0.009,18.384 0.004,0.396 -0.127,0.813 -0.323,1.127 l -19.084,-10.5 z"
     clip-rule="evenodd"
     id="path8"
     style="fill:#ccddf9;fill-opacity:1" />
  <path
     style="fill:#ccddf9;fill-opacity:1;stroke-width:0.0671;stroke-dasharray:none"
     d="M 0.15919353,31.099301 C 0.08259401,30.917762 0.06713287,29.206836 0.06713287,20.911889 V 10.942658 L 0.24653314,10.602733 C 0.44594291,10.224895 0.80631476,9.8699636 1.2503759,9.6140451 2.1329999,9.105376 17.676864,0.41101559 17.961607,0.26672516 c 0.419677,-0.21266625 1.056113,-0.28222648 1.533777,-0.16763648 0.214948,0.05156512 1.182925,0.54838891 2.543304,1.30537472 1.207952,0.6721688 2.407746,1.3378652 2.666208,1.4793255 0.258461,0.1414604 2.493986,1.3899926 4.967832,2.7745162 2.473846,1.3845236 5.129685,2.868011 5.901864,3.2966382 0.772179,0.4286273 1.510781,0.8791922 1.641339,1.0012545 l 0.237377,0.2219322 -3.177388,1.808837 c -1.747564,0.994861 -3.187616,1.808838 -3.200116,1.808838 -0.0125,0 -0.133814,-0.173707 -0.269589,-0.386014 -0.676424,-1.05771 -1.8301,-2.357117 -2.845375,-3.204799 C 25.221985,7.9182453 21.544653,6.7412437 17.991609,7.0141462 11.344857,7.5246708 6.0094663,12.522528 5.1057266,19.084826 c -0.1330883,0.96639 -0.1348818,2.903904 -0.00354,3.827863 0.2016998,1.418947 0.6189799,2.817858 1.2296379,4.122301 l 0.328806,0.702371 -3.1392743,1.790061 c -1.726601,0.984534 -3.16870994,1.790061 -3.20468659,1.790061 -0.0359767,0 -0.10683941,-0.09818 -0.15747278,-0.218182 z"
     id="path1" />
  <path
     style="fill:#ccddf9;fill-opacity:1;stroke-width:0.0671329"
     d="m 34.439162,29.692247 c -3.297192,-1.826806 -6.778808,-3.744276 -12.406415,-6.83272 -2.652951,-1.455947 -3.325399,-1.851469 -3.255944,-1.915086 0.07519,-0.06888 5.10587,-2.952586 6.263757,-3.590545 0.221538,-0.12206 1.641399,-0.931597 3.155245,-1.798969 1.513846,-0.867373 4.217538,-2.416493 6.008205,-3.442488 3.638449,-2.084717 3.361094,-1.981181 3.606166,-1.346175 0.113159,0.293206 0.119895,0.867086 0.119895,10.214926 0,9.589925 -0.004,9.913253 -0.127678,10.187413 -0.07022,0.15573 -0.145748,0.280594 -0.167832,0.277476 -0.02208,-0.0031 -1.460015,-0.792343 -3.195399,-1.753832 z"
     id="path3" />
  <path
     style="fill:#ccddf9;fill-opacity:1;stroke-width:0.0671329"
     d="m 18.582146,41.923091 c -0.155205,-0.03172 -0.351569,-0.09298 -0.436364,-0.13613 -0.08479,-0.04315 -3.990678,-2.22762 -8.6797394,-4.854384 C 2.358024,32.950739 0.88667065,32.102126 0.6168703,31.828753 0.43888675,31.648414 0.31790885,31.476619 0.34803053,31.446988 c 0.0742381,-0.07303 6.28694507,-3.620202 6.34082227,-3.62032 0.023484,-5.2e-5 0.1697281,0.213728 0.3249859,0.475066 0.7942436,1.33691 2.3242655,3.013449 3.6040733,3.949204 2.516091,1.839687 5.287309,2.753721 8.360468,2.757543 3.384489,0.0042 6.473504,-1.113228 9.053511,-3.275064 1.098563,-0.920506 2.203769,-2.196726 2.911976,-3.362561 l 0.251814,-0.41453 0.312649,0.175443 c 0.171957,0.09649 1.611671,0.88797 3.199363,1.758837 1.587692,0.870868 2.899795,1.593988 2.915784,1.606934 0.05975,0.04838 -0.254592,0.397821 -0.539515,0.59975 -0.357898,0.253648 -16.737642,9.450119 -17.212633,9.664101 -0.397224,0.178948 -0.89769,0.24172 -1.289183,0.1617 z"
     id="path5" />
  <path
     style="fill:#ccddf9;fill-opacity:1;stroke-width:0.0671329"
     d="M 17.85396,27.867235 C 16.474843,27.603611 15.443739,27.107361 14.3813,26.195914 13.968349,25.84165 13.255905,24.985592 13.008705,24.546629 L 12.859367,24.281446 15.701889,22.6638 c 1.563387,-0.889705 2.860969,-1.617646 2.883516,-1.617646 0.0375,0 6.281222,3.411652 6.351511,3.47055 0.06049,0.05069 -0.212587,0.472225 -0.62131,0.95907 -0.895286,1.066403 -2.229191,1.908924 -3.57155,2.25586 -0.827551,0.213883 -2.154801,0.276157 -2.890096,0.135601 z"
     id="path7" />
  <path
     style="fill:#ccddf9;fill-opacity:1;stroke-width:0.0671329"
     d="m 12.637057,23.817593 c -0.765758,-1.727675 -0.783264,-3.789196 -0.04687,-5.519691 0.831249,-1.953406 2.453719,-3.383844 4.543192,-4.005468 0.804422,-0.239318 2.331318,-0.30214 3.178626,-0.130781 0.764409,0.154595 1.625197,0.486473 2.291132,0.883352 0.586159,0.349334 1.728556,1.4165 2.112277,1.973177 l 0.208238,0.302098 -6.001343,3.423776 c -3.300739,1.883077 -6.026506,3.432323 -6.057261,3.442768 -0.03075,0.01044 -0.133349,-0.155709 -0.227989,-0.369231 z"
     id="path9" />
  <path
     style="fill:#ccddf9;fill-opacity:1;stroke-width:0.00308909"
     d="m 0.28954755,31.381358 c -0.008512,-0.01153 -0.0285935,-0.04112 -0.0446265,-0.06575 C 0.10424168,31.099445 0.03405534,30.874789 0.01088924,30.566502 0.00278284,30.458625 0.00164299,30.32423 0.00159494,29.470649 l -5.04e-5,-0.895063 h 0.03825051 0.03825051 l 0.0018193,0.127425 c 0.0010006,0.07008 0.0032955,0.29354 0.0050997,0.496571 0.01026901,1.155575 0.03045355,1.737436 0.06502668,1.874528 0.0123813,0.0491 0.0770791,0.1663 0.11610192,0.210326 0.0167241,0.01887 0.0389932,0.03426 0.049572,0.03426 0.0258963,0 0.63209261,-0.333582 1.69687404,-0.933767 0.5937844,-0.334699 1.0453858,-0.591281 2.3439153,-1.331723 l 0.8379859,-0.477832 0.031413,9e-4 0.031413,9e-4 -2.469545,1.408449 c -1.3582497,0.774648 -2.47250429,1.410315 -2.47612127,1.412595 -0.006163,0.0039 -0.00755,0.0028 -0.0220519,-0.01682 z"
     id="path10" />
</svg>
