<?xml version="1.0" encoding="UTF-8" standalone="no"?>
<!-- Uploaded to: SVG Repo, www.svgrepo.com, Transformed by: SVG Repo Mixer Tools -->

<svg
   width="800px"
   height="800px"
   viewBox="-4 0 64 64"
   fill="#000000"
   version="1.1"
   id="svg4"
   sodipodi:docname="exe.svg"
   inkscape:version="1.3.2 (091e20e, 2023-11-25, custom)"
   xmlns:inkscape="http://www.inkscape.org/namespaces/inkscape"
   xmlns:sodipodi="http://sodipodi.sourceforge.net/DTD/sodipodi-0.dtd"
   xmlns="http://www.w3.org/2000/svg"
   xmlns:svg="http://www.w3.org/2000/svg">
  <defs
     id="defs4" />
  <sodipodi:namedview
     id="namedview4"
     pagecolor="#ffffff"
     bordercolor="#000000"
     borderopacity="0.25"
     inkscape:showpageshadow="2"
     inkscape:pageopacity="0.0"
     inkscape:pagecheckerboard="0"
     inkscape:deskcolor="#d1d1d1"
     inkscape:zoom="1.06875"
     inkscape:cx="400"
     inkscape:cy="400"
     inkscape:window-width="1920"
     inkscape:window-height="1111"
     inkscape:window-x="-9"
     inkscape:window-y="-9"
     inkscape:window-maximized="1"
     inkscape:current-layer="svg4" />
  <g
     id="SVGRepo_bgCarrier"
     stroke-width="0" />
  <g
     id="SVGRepo_tracerCarrier"
     stroke-linecap="round"
     stroke-linejoin="round" />
  <g
     id="SVGRepo_iconCarrier">
    <path
       d="M5.112.025c-2.802 0-5.073 2.272-5.073 5.074v53.841c0 2.803 2.271 5.074 5.073 5.074h45.774c2.801 0 5.074-2.271 5.074-5.074v-38.605l-18.902-20.31h-31.946z"
       fill-rule="evenodd"
       clip-rule="evenodd"
       fill="#fcb3fd"
       id="path1"
       style="fill:#ccddf9;fill-opacity:1" />
    <g
       fill-rule="evenodd"
       clip-rule="evenodd"
       id="g3">
      <path
         d="M55.961 20.377v1h-12.799s-6.312-1.26-6.129-6.708c0 0 .208 5.708 6.004 5.708h12.924z"
         fill="#fcb3fd"
         id="path2"
         style="fill:#ccddf9;fill-opacity:1" />
      <path
         d="M37.059.025v14.561c0 1.656 1.104 5.792 6.104 5.792h12.799l-18.903-20.353z"
         opacity=".5"
         fill="#ffffff"
         id="path3" />
    </g>
    <path
       d="M17.455 53.919h-6.247c-.595 0-1.081-.486-1.081-1.081v-9.848c0-.594.486-1.08 1.081-1.08h6.247c.361 0 .648.288.648.684 0 .36-.287.648-.648.648h-5.833v3.871h5.708c.359 0 .648.288.648.685 0 .36-.289.648-.648.648h-5.708v4.141h5.833c.361 0 .648.288.648.648.001.396-.287.684-.648.684zm12.098.126c-.217 0-.414-.09-.541-.27l-3.727-4.97-3.746 4.97c-.125.18-.324.27-.539.27-.396 0-.721-.306-.721-.72 0-.144.036-.306.145-.432l3.889-5.131-3.619-4.825c-.09-.126-.145-.271-.145-.415 0-.342.289-.72.721-.72.217 0 .432.108.576.288l3.439 4.627 3.438-4.646c.126-.18.324-.27.54-.27.379 0 .738.306.738.72 0 .145-.035.289-.126.415l-3.618 4.808 3.889 5.149c.09.126.126.27.126.414 0 .396-.324.738-.719.738zm10.78-.126h-6.247c-.595 0-1.081-.486-1.081-1.081v-9.848c0-.594.486-1.08 1.081-1.08h6.247c.36 0 .648.288.648.684 0 .36-.288.648-.648.648h-5.833v3.871h5.707c.36 0 .648.288.648.685 0 .36-.288.648-.648.648h-5.707v4.141h5.833c.36 0 .648.288.648.648 0 .396-.288.684-.648.684z"
       fill="#ffffff"
       id="path4" />
  </g>
</svg>
