<?xml version="1.0" encoding="UTF-8" standalone="no"?>
<!-- Uploaded to: SVG Repo, www.svgrepo.com, Transformed by: SVG Repo Mixer Tools -->

<svg
   width="800px"
   height="800px"
   viewBox="0 0 24 24"
   fill="none"
   version="1.1"
   id="svg1"
   sodipodi:docname="file.svg"
   inkscape:version="1.3.2 (091e20e, 2023-11-25, custom)"
   xmlns:inkscape="http://www.inkscape.org/namespaces/inkscape"
   xmlns:sodipodi="http://sodipodi.sourceforge.net/DTD/sodipodi-0.dtd"
   xmlns="http://www.w3.org/2000/svg"
   xmlns:svg="http://www.w3.org/2000/svg">
  <defs
     id="defs1" />
  <sodipodi:namedview
     id="namedview1"
     pagecolor="#ffffff"
     bordercolor="#000000"
     borderopacity="0.25"
     inkscape:showpageshadow="2"
     inkscape:pageopacity="0.0"
     inkscape:pagecheckerboard="0"
     inkscape:deskcolor="#d1d1d1"
     inkscape:zoom="1.06875"
     inkscape:cx="400"
     inkscape:cy="400"
     inkscape:window-width="1920"
     inkscape:window-height="1111"
     inkscape:window-x="-9"
     inkscape:window-y="-9"
     inkscape:window-maximized="1"
     inkscape:current-layer="svg1" />
  <g
     id="SVGRepo_bgCarrier"
     stroke-width="0" />
  <g
     id="SVGRepo_tracerCarrier"
     stroke-linecap="round"
     stroke-linejoin="round" />
  <g
     id="SVGRepo_iconCarrier">
    <path
       fill-rule="evenodd"
       clip-rule="evenodd"
       d="M5.272 3.365C5 3.9 5 4.6 5 6v12c0 1.4 0 2.1.272 2.635a2.5 2.5 0 0 0 1.093 1.092C6.9 22 7.6 22 9 22h6c1.4 0 2.1 0 2.635-.273a2.5 2.5 0 0 0 1.092-1.092C19 20.1 19 19.4 19 18V9.988c0-.734 0-1.1-.083-1.446a3 3 0 0 0-.36-.867c-.185-.303-.444-.562-.963-1.08l-3.188-3.19c-.519-.518-.778-.777-1.081-.963a3.001 3.001 0 0 0-.867-.36C12.112 2 11.745 2 11.012 2H9c-1.4 0-2.1 0-2.635.272a2.5 2.5 0 0 0-1.093 1.093zM11 9V4.82a.821.821 0 0 1 1.377-.604l4.386 4.386a.819.819 0 0 1-.58 1.398H12a1 1 0 0 1-1-1z"
       fill="#fcb3fd"
       id="path1"
       style="fill:#ccddf9;fill-opacity:1" />
  </g>
</svg>
