<?xml version="1.0" encoding="UTF-8" standalone="no"?>
<!-- Uploaded to: SVG Repo, www.svgrepo.com, Transformed by: SVG Repo Mixer Tools -->

<svg
   width="800px"
   height="800px"
   viewBox="0 0 24 24"
   fill="none"
   version="1.1"
   id="svg7"
   sodipodi:docname="zip.svg"
   inkscape:version="1.3.2 (091e20e, 2023-11-25, custom)"
   xmlns:inkscape="http://www.inkscape.org/namespaces/inkscape"
   xmlns:sodipodi="http://sodipodi.sourceforge.net/DTD/sodipodi-0.dtd"
   xmlns="http://www.w3.org/2000/svg"
   xmlns:svg="http://www.w3.org/2000/svg">
  <defs
     id="defs7" />
  <sodipodi:namedview
     id="namedview7"
     pagecolor="#ffffff"
     bordercolor="#000000"
     borderopacity="0.25"
     inkscape:showpageshadow="2"
     inkscape:pageopacity="0.0"
     inkscape:pagecheckerboard="0"
     inkscape:deskcolor="#d1d1d1"
     inkscape:zoom="1.06875"
     inkscape:cx="400"
     inkscape:cy="400"
     inkscape:window-width="1920"
     inkscape:window-height="1111"
     inkscape:window-x="-9"
     inkscape:window-y="-9"
     inkscape:window-maximized="1"
     inkscape:current-layer="SVGRepo_iconCarrier" />
  <g
     id="SVGRepo_bgCarrier"
     stroke-width="0" />
  <g
     id="SVGRepo_tracerCarrier"
     stroke-linecap="round"
     stroke-linejoin="round" />
  <g
     id="SVGRepo_iconCarrier">
    <path
       d="M2 20V4C2 3.44772 2.44772 3 3 3H8.44792C8.79153 3 9.11108 3.17641 9.29416 3.46719L10.5947 5.53281C10.7778 5.82359 11.0974 6 11.441 6H21C21.5523 6 22 6.44772 22 7V20C22 20.5523 21.5523 21 21 21H3C2.44772 21 2 20.5523 2 20Z"
       stroke="#fcb3fd"
       stroke-width="2"
       id="path1"
       style="fill:none;fill-opacity:1;stroke:#ccddf9;stroke-opacity:1" />
    <rect
       x="14"
       y="7"
       width="2"
       height="2"
       fill="#fcb3fd"
       id="rect1"
       style="fill:#ccddf9;fill-opacity:1" />
    <rect
       x="16"
       y="9"
       width="2"
       height="2"
       fill="#fcb3fd"
       id="rect2"
       style="fill:#ccddf9;fill-opacity:1" />
    <rect
       x="14"
       y="11"
       width="2"
       height="2"
       fill="#fcb3fd"
       id="rect3"
       style="fill:#ccddf9;fill-opacity:1" />
    <rect
       x="16"
       y="13"
       width="2"
       height="2"
       fill="#fcb3fd"
       id="rect4"
       style="fill:#ccddf9;fill-opacity:1" />
    <rect
       x="14"
       y="15"
       width="2"
       height="2"
       fill="#fcb3fd"
       id="rect5"
       style="fill:#ccddf9;fill-opacity:1" />
    <rect
       x="16"
       y="17"
       width="2"
       height="2"
       fill="#fcb3fd"
       id="rect6"
       style="fill:#ccddf9;fill-opacity:1" />
    <rect
       x="14"
       y="17"
       width="2"
       height="2"
       fill="#fcb3fd"
       id="rect7"
       style="fill:#ccddf9;fill-opacity:1" />
  </g>
</svg>
